<svg width="20" height="20" xmlns="http://www.w3.org/2000/svg" viewBox="0 0 20 20" fill="#005AE0"><path d="M17.644 11.655c-.321-.229-.654-.446-.964-.697-.643-.534-.631-1.372.023-1.884.31-.24.642-.458.964-.697.184-.13.321-.294.333-.534 0-.032 0-.076-.012-.12a7.442 7.442 0 0 0-1.893-3.147c-.207-.207-.46-.24-.746-.12a22.05 22.05 0 0 1-1.068.436c-.918.348-1.687-.087-1.813-1.024-.046-.338-.08-.675-.115-1.013-.034-.37-.24-.599-.63-.675a8.446 8.446 0 0 0-3.467 0c-.367.076-.574.272-.608.632a13.78 13.78 0 0 1-.16 1.176c-.161.828-.919 1.23-1.745.915-.356-.13-.712-.294-1.067-.447-.333-.141-.609-.087-.85.164a7.779 7.779 0 0 0-1.779 2.918c-.114.338-.023.61.287.828.299.207.609.414.895.632.77.588.758 1.448-.022 2.014-.287.207-.574.414-.861.61-.322.218-.413.512-.299.86a7.87 7.87 0 0 0 1.745 2.887c.24.25.516.316.85.185.39-.153.768-.327 1.158-.468.758-.273 1.515.12 1.676.87.08.404.126.818.16 1.22.035.37.241.567.597.643 1.16.24 2.307.24 3.466.011.413-.087.608-.316.643-.708.023-.327.069-.653.103-.97.115-.925.895-1.382 1.814-1.045.344.131.688.273 1.032.425.368.153.666.076.918-.207a8.494 8.494 0 0 0 1.71-2.82c.15-.338.058-.621-.275-.85zm-9.48.697c-.103.13-.31.12-.413-.01L6.03 10.173a.22.22 0 0 1 0-.283l1.928-2.429 1.469 1.72-.631.85.527.708a.205.205 0 0 1-.011.262zm5.83-2.178-2.479 3.017a.26.26 0 0 1-.206.109H9.105a.25.25 0 0 1-.206-.403l2.353-2.865-2.674-3.267h2.869l2.559 3.126a.236.236 0 0 1-.011.283z"/></svg>
