<svg width="50" height="50" viewBox="0 0 50 50" fill="none" xmlns="http://www.w3.org/2000/svg">
<g filter="url(#filter0_dii_2534_413)">
<rect x="2" y="1" width="45.9993" height="46" rx="5" fill="white"/>
<rect x="2.5" y="1.5" width="44.9993" height="45" rx="4.5" stroke="#E6EEFC"/>
<path d="M36.3107 14.1474C35.9619 14.4961 35.6131 14.8449 35.2644 15.1929C34.3509 16.1064 33.4358 17.02 32.5231 17.935C32.3101 18.148 32.0581 18.274 31.7558 18.2702C31.35 18.265 31.0388 18.0782 30.8505 17.7205C30.6585 17.356 30.6923 16.9929 30.9225 16.6517C30.9653 16.5887 31.0185 16.5309 31.0725 16.4769C32.3333 15.2154 33.5948 13.9539 34.8556 12.6923C32.2201 10.3928 28.773 9 25.0004 9C16.7157 9 10 15.7157 10 24.0004C10 27.773 11.3935 31.2201 13.6923 33.8564C14.9524 32.5963 16.2124 31.3363 17.4717 30.0755C17.6794 29.867 17.9224 29.7298 18.2187 29.7283C18.6177 29.726 18.9305 29.897 19.1367 30.2443C19.226 30.3943 19.2717 30.5593 19.271 30.65C19.2762 31.0513 19.1487 31.3093 18.9282 31.5291C17.8069 32.6488 16.6864 33.7694 15.5659 34.8899C15.4256 35.0302 15.2861 35.1697 15.1459 35.3099C17.7814 37.608 21.2278 39 24.9989 39C33.2836 39 39.9993 32.2843 39.9993 23.9996C39.9993 20.2278 38.6072 16.7822 36.3092 14.1466L36.3107 14.1474ZM17.0622 28.3085C16.6864 28.6835 16.4262 29.126 16.3242 29.6495C16.3054 29.744 16.2927 29.8378 16.2837 29.9308L14.4881 31.7263C14.4086 31.5006 14.3449 31.2673 14.2999 31.0251C14.0996 29.9518 14.2609 28.9287 14.7746 27.9635C14.9734 27.59 15.2194 27.2502 15.5186 26.9502C16.0857 26.3824 16.6519 25.8147 17.2197 25.2477C17.3434 26.0277 17.5812 26.7694 17.9157 27.4557C17.6307 27.74 17.3464 28.0242 17.0622 28.3085ZM27.9194 14.5494C28.554 13.9179 29.3152 13.5129 30.1883 13.3246C31.0478 13.1394 31.896 13.1911 32.7218 13.4926L30.9308 15.2837C30.669 15.3084 30.4095 15.3722 30.153 15.4802C29.8365 15.6137 29.5627 15.8087 29.3205 16.0502C29.0317 16.3382 28.7437 16.6269 28.455 16.9149C27.7694 16.5804 27.0277 16.3427 26.2484 16.2189C26.8049 15.6617 27.3607 15.1044 27.9187 14.5486L27.9194 14.5494ZM27.7119 21.3424C27.4742 21.3424 27.2687 21.4272 27.1014 21.5952L24.1111 24.5855L22.9141 23.3892C22.7476 23.2362 22.5495 23.159 22.326 23.159C22.1025 23.159 21.8985 23.2422 21.7155 23.4117C21.537 23.5895 21.447 23.795 21.447 24.0222C21.447 24.2495 21.5415 24.4528 21.7215 24.608L23.5163 26.4178C23.6843 26.5858 23.8846 26.6706 24.1118 26.6706C24.3391 26.6706 24.5393 26.5858 24.7081 26.4171L28.3164 22.7772C28.4882 22.6197 28.576 22.4142 28.5685 22.1832C28.5617 21.9589 28.4739 21.7609 28.3149 21.6019C28.1589 21.4317 27.9512 21.3417 27.7127 21.3417L27.7119 21.3424Z" fill="#005AE0"/>
</g>
<defs>
<filter id="filter0_dii_2534_413" x="0" y="0" width="49.9993" height="50" filterUnits="userSpaceOnUse" color-interpolation-filters="sRGB">
<feFlood flood-opacity="0" result="BackgroundImageFix"/>
<feColorMatrix in="SourceAlpha" type="matrix" values="0 0 0 0 0 0 0 0 0 0 0 0 0 0 0 0 0 0 127 0" result="hardAlpha"/>
<feOffset dy="1"/>
<feGaussianBlur stdDeviation="1"/>
<feColorMatrix type="matrix" values="0 0 0 0 0.0392157 0 0 0 0 0.0496732 0 0 0 0 0.0705882 0 0 0 0.05 0"/>
<feBlend mode="normal" in2="BackgroundImageFix" result="effect1_dropShadow_2534_413"/>
<feBlend mode="normal" in="SourceGraphic" in2="effect1_dropShadow_2534_413" result="shape"/>
<feColorMatrix in="SourceAlpha" type="matrix" values="0 0 0 0 0 0 0 0 0 0 0 0 0 0 0 0 0 0 127 0" result="hardAlpha"/>
<feOffset dy="-2"/>
<feComposite in2="hardAlpha" operator="arithmetic" k2="-1" k3="1"/>
<feColorMatrix type="matrix" values="0 0 0 0 0.0392157 0 0 0 0 0.0496732 0 0 0 0 0.0705882 0 0 0 0.05 0"/>
<feBlend mode="normal" in2="shape" result="effect2_innerShadow_2534_413"/>
<feColorMatrix in="SourceAlpha" type="matrix" values="0 0 0 0 0 0 0 0 0 0 0 0 0 0 0 0 0 0 127 0" result="hardAlpha"/>
<feMorphology radius="1" operator="erode" in="SourceAlpha" result="effect3_innerShadow_2534_413"/>
<feOffset/>
<feComposite in2="hardAlpha" operator="arithmetic" k2="-1" k3="1"/>
<feColorMatrix type="matrix" values="0 0 0 0 0.0392157 0 0 0 0 0.0496732 0 0 0 0 0.0705882 0 0 0 0.18 0"/>
<feBlend mode="normal" in2="effect2_innerShadow_2534_413" result="effect3_innerShadow_2534_413"/>
</filter>
</defs>
</svg>
