<svg preserveAspectRatio="none" width="100%" height="100%" overflow="visible" style="display: block;" viewBox="0 0 53 53" fill="none" xmlns="http://www.w3.org/2000/svg">
<g id="Frame" clip-path="url(#clip0_0_4)">
<path id="Vector" d="M46.481 9.09348C45.8649 9.7096 45.2487 10.3257 44.6326 10.9405C43.0186 12.5544 41.4023 14.1682 39.7897 15.7847C39.4134 16.161 38.9682 16.3836 38.4343 16.377C37.7174 16.3677 37.1676 16.0378 36.835 15.4058C36.4958 14.7618 36.5554 14.1205 36.9622 13.5177C37.0377 13.4064 37.1318 13.3043 37.2272 13.2089C39.4545 10.9803 41.6832 8.75163 43.9105 6.52298C39.2545 2.46053 33.1647 0 26.5 0C11.864 0 0 11.8641 0 26.5C0 33.1648 2.46185 39.2545 6.52297 43.9118C8.74897 41.6858 10.975 39.4598 13.1996 37.2325C13.5667 36.8642 13.996 36.6217 14.5193 36.619C15.2242 36.6151 15.7768 36.9172 16.1411 37.5306C16.2988 37.7956 16.3796 38.0871 16.3783 38.2475C16.3876 38.9563 16.1623 39.4121 15.7728 39.8004C13.7919 41.7786 11.8124 43.7581 9.83282 45.7377C9.58505 45.9855 9.3386 46.2317 9.09082 46.4797C13.7469 50.5397 19.8353 52.9987 26.4973 52.9987C41.1333 52.9987 52.9976 41.1346 52.9976 26.4987C52.9976 19.8353 50.5379 13.7482 46.4786 9.09215L46.481 9.09348ZM12.4762 34.1108C11.8124 34.7733 11.3526 35.5551 11.1724 36.4799C11.1393 36.6469 11.1167 36.8125 11.1008 36.9768L7.9288 40.1488C7.78835 39.75 7.67572 39.3379 7.59622 38.91C7.24245 37.0139 7.52732 35.2066 8.43495 33.5013C8.78607 32.8415 9.22068 32.2412 9.74935 31.7112C10.751 30.7082 11.7514 29.7052 12.7544 28.7035C12.9731 30.0815 13.3931 31.3919 13.984 32.6043C13.4805 33.1065 12.9784 33.6086 12.4762 34.1108ZM31.6569 9.80368C32.7778 8.68803 34.1227 7.97253 35.665 7.63995C37.1835 7.31268 38.682 7.4041 40.1409 7.93675L36.9768 11.1009C36.5143 11.1446 36.0559 11.2572 35.6027 11.448C35.0436 11.6839 34.56 12.0284 34.132 12.455C33.6219 12.9638 33.1131 13.4739 32.6029 13.9827C31.3919 13.3918 30.0815 12.9718 28.7048 12.7531C29.6879 11.7687 30.6711 10.7855 31.6569 9.80368ZM21.2119 43.3209C20.0419 44.458 18.6242 45.1481 17.013 45.4252C15.5899 45.6703 14.2 45.5493 12.8538 45.0657L16.0232 41.8965C16.0908 41.8899 16.1584 41.8886 16.2259 41.8791C17.0541 41.7693 17.7908 41.4418 18.4453 40.9279C18.6017 40.8047 18.7474 40.6682 18.8879 40.5278C19.3914 40.0243 19.8949 39.5208 20.3984 39.016C21.6134 39.6082 22.9265 40.0296 24.3071 40.2469C23.2816 41.2777 22.2547 42.3073 21.2119 43.3209ZM38.2753 28.7167C38.2315 28.9605 38.1799 29.2057 38.1202 29.4495C38.0606 29.6933 37.9944 29.9344 37.9228 30.1716C37.8645 30.3637 37.7466 30.5201 37.5969 30.634C37.4471 30.7056 37.2789 30.7427 37.1053 30.7347L35.5405 30.6632C35.2357 30.6499 34.9495 30.7718 34.7375 30.9785C34.6315 31.0646 34.5388 31.1706 34.4672 31.2939C34.3162 31.5549 34.1505 31.8053 33.977 32.0478C33.7968 32.2823 33.6086 32.5089 33.4072 32.7249C33.3131 32.8256 33.2403 32.9422 33.1886 33.0654C33.0468 33.3304 33.011 33.6444 33.1144 33.9346L33.6391 35.4106C33.6987 35.5776 33.7106 35.7525 33.6841 35.9194C33.6179 36.0917 33.5039 36.2467 33.341 36.3567C32.9276 36.6363 32.4956 36.8907 32.0504 37.1186C31.6595 37.3186 31.1865 37.2193 30.8924 36.8999L29.843 35.7631C29.5727 35.4703 29.1526 35.3682 28.7618 35.4676C28.1443 35.624 27.5057 35.7207 26.8577 35.7512C26.4549 35.7697 26.0826 35.991 25.909 36.3487L25.2373 37.74C25.0491 38.1309 24.6251 38.3641 24.1918 38.2859C23.948 38.2422 23.7029 38.1905 23.4591 38.1309C23.2153 38.0712 22.9742 38.005 22.737 37.9334C22.6575 37.9096 22.5859 37.8725 22.5184 37.8301C22.3448 37.6393 22.2494 37.3769 22.2613 37.104L22.3329 35.5392C22.3514 35.1364 22.1315 34.764 21.791 34.5573C21.2424 34.2248 20.7336 33.8379 20.2712 33.4072C20.0844 33.2337 19.8498 33.1277 19.6074 33.1091C19.402 33.0535 19.182 33.0548 18.9753 33.1277L17.4993 33.6524C17.3853 33.6934 17.2661 33.7107 17.1495 33.7107C16.9481 33.6524 16.7665 33.5278 16.6407 33.341C16.3611 32.9276 16.1067 32.4956 15.8788 32.0504C15.6787 31.6596 15.7781 31.1865 16.0974 30.8924L17.2343 29.843C17.5271 29.5727 17.6291 29.1527 17.5297 28.7618C17.3734 28.1443 17.2767 27.5057 17.2462 26.8578C17.2276 26.455 17.0064 26.0826 16.6486 25.9091L15.2574 25.2373C14.8665 25.0491 14.6333 24.6251 14.7115 24.1919C14.7552 23.9481 14.8069 23.7029 14.8665 23.4591C14.9261 23.2153 14.9924 22.9742 15.0639 22.737C15.101 22.6151 15.1646 22.5078 15.2428 22.415C15.4084 22.317 15.6032 22.2653 15.8072 22.2746L17.3721 22.3461C17.7391 22.3634 18.0809 22.1805 18.2943 21.8903C18.3817 21.8122 18.4586 21.7207 18.5195 21.6147C18.66 21.3709 18.8163 21.1391 18.9766 20.9125C19.1449 20.6965 19.3185 20.4845 19.5053 20.2844C19.5861 20.197 19.6511 20.0989 19.7001 19.9943C19.9187 19.7041 19.9956 19.3225 19.871 18.974L19.3463 17.498C19.2774 17.3045 19.2708 17.1005 19.3172 16.9123C19.3821 16.8129 19.4656 16.7242 19.5703 16.6526C19.9837 16.373 20.4156 16.1186 20.8608 15.8907C21.2517 15.6907 21.7247 15.79 22.0189 16.1094L23.0682 17.2462C23.3385 17.539 23.7586 17.6411 24.1494 17.5417C24.7669 17.3853 25.4055 17.2886 26.0535 17.2581C26.4563 17.2396 26.8286 17.0183 27.0022 16.6606L27.6739 15.2693C27.8621 14.8784 28.2861 14.6452 28.7194 14.7234C28.9632 14.7671 29.2083 14.8188 29.4521 14.8784C29.6959 14.9381 29.937 15.0043 30.1742 15.0759C30.3928 15.1434 30.5664 15.2839 30.6817 15.4641C30.7135 15.5727 30.7294 15.688 30.7241 15.8046L30.6525 17.3694C30.6419 17.5881 30.7042 17.7961 30.8155 17.9763C30.9043 18.2042 31.0739 18.4016 31.2965 18.5301C31.8543 18.8534 32.3697 19.2297 32.8388 19.6498C33.1356 19.9161 33.5569 20.0168 33.9359 19.8816L35.412 19.3569C35.673 19.2642 35.9539 19.2814 36.1884 19.394C36.2467 19.4444 36.2997 19.5014 36.3447 19.5676C36.6243 19.981 36.8787 20.413 37.1066 20.8582C37.3067 21.249 37.2073 21.7221 36.888 22.0162L35.7511 23.0656C35.4583 23.3359 35.3563 23.7559 35.4557 24.1468C35.612 24.7643 35.7087 25.4029 35.7392 26.0508C35.7578 26.4536 35.979 26.826 36.3368 26.9995L37.728 27.6713C38.1189 27.8595 38.3534 28.2835 38.2753 28.7167ZM45.4848 16.6089C45.2927 18.1525 44.7121 19.5332 43.7369 20.7442C43.5607 20.9628 43.3725 21.1722 43.1751 21.3709C42.1999 22.3488 41.2247 23.328 40.2469 24.3032C40.0296 22.9238 39.6095 21.6108 39.0173 20.3984C39.5314 19.8856 40.0455 19.3715 40.5596 18.8574C41.2128 18.2029 41.6538 17.4251 41.8289 16.5148C41.8609 16.3479 41.8832 16.1836 41.8989 16.0193L45.0657 12.8525C45.5096 14.0583 45.6449 15.317 45.4848 16.6089Z" fill="var(--fill-0, white)"/>
<path id="Vector_2" d="M31.2899 21.8053C30.8699 21.8053 30.5068 21.955 30.2113 22.2518L24.9286 27.5346L22.8139 25.4212C22.5197 25.1509 22.1699 25.0145 21.7751 25.0145C21.3803 25.0145 21.0199 25.1615 20.6966 25.461C20.3812 25.775 20.2222 26.1381 20.2222 26.5395C20.2222 26.941 20.3892 27.3001 20.7072 27.5744L23.8778 30.7716C24.1746 31.0684 24.5284 31.2181 24.9299 31.2181C25.3313 31.2181 25.6851 31.0684 25.9833 30.7703L32.3578 24.34C32.6613 24.0618 32.8163 23.6987 32.803 23.2906C32.7911 22.8945 32.6361 22.5447 32.3552 22.2638C32.0796 21.963 31.7112 21.8053 31.2899 21.8053Z" fill="var(--fill-0, white)"/>
</g>
<defs>
<clipPath id="clip0_0_4">
<rect width="53" height="53" fill="white"/>
</clipPath>
</defs>
</svg>
