<svg preserveAspectRatio="none" width="100%" height="100%" overflow="visible" style="display: block;" viewBox="0 0 58 58" fill="none" xmlns="http://www.w3.org/2000/svg">
<g id="Frame">
<path id="Vector" d="M27.6431 55.2862C42.9098 55.2862 55.2862 42.9098 55.2862 27.6431C55.2862 12.3762 42.9098 0 27.6431 0C12.3762 0 0 12.3762 0 27.6431C0 31.7393 0.618553 35.3551 1.99244 38.6272C3.64223 42.5563 8.67031 42.9181 11.9655 40.2158L20.9297 32.8653L22.9043 35.0577L16.1732 42.8968C13.2865 46.2589 13.6788 51.5203 17.7447 53.2821C20.7271 54.5747 23.9823 55.2862 27.6431 55.2862Z" fill="var(--fill-0, #005AE0)"/>
<path id="Vector_2" fill-rule="evenodd" clip-rule="evenodd" d="M26.7454 37.4216C25.472 38.2096 24.1094 38.9738 22.6523 39.7074L19.1889 36.2439L43.7477 11.6851C44.0237 15.904 42.0008 24.5549 33.445 32.3889C34.0758 38.077 29.6477 41.6675 27.0413 42.8457L26.7454 37.4216ZM18.0107 28.6868C17.2229 29.9603 16.4586 31.323 15.7249 32.7802L19.1889 36.2439L43.7477 11.6851C39.5289 11.4091 30.8775 13.4316 23.0434 21.9872C17.3554 21.3564 13.7648 25.7847 12.5866 28.391L18.0107 28.6868Z" fill="var(--fill-0, #F1F5F9)"/>
<path id="Vector_3" d="M32.5794 25.6682C34.2152 25.6682 35.5412 24.3422 35.5412 22.7064C35.5412 21.0707 34.2152 19.7447 32.5794 19.7447C30.9437 19.7447 29.6177 21.0707 29.6177 22.7064C29.6177 24.3422 30.9437 25.6682 32.5794 25.6682Z" fill="var(--fill-0, #005AE0)"/>
</g>
</svg>
