<svg width="50" height="50" viewBox="0 0 50 50" fill="none" xmlns="http://www.w3.org/2000/svg">
<g filter="url(#filter0_dii_2212_1535)">
<rect x="2" y="1" width="46" height="46" rx="5" fill="white"/>
<rect x="2.5" y="1.5" width="45" height="45" rx="4.5" stroke="#E6EEFC"/>
<path d="M40 24C40 32.2843 33.2843 39 25 39C16.7157 39 10 32.2843 10 24C10 15.7157 16.7157 9 25 9C33.2843 9 40 15.7157 40 24Z" fill="#005AE0"/>
<path d="M16.9443 25.8157V24.0002H23.2985V25.8157H16.9443ZM16.9443 22.1847V20.3692H26.9295V22.1847H16.9443ZM16.9443 18.5538V16.7383H26.9295V18.5538H16.9443Z" fill="white"/>
<path d="M30.6352 19.3284C30.7319 19.0673 31.1013 19.0673 31.1979 19.3284L31.5664 20.3243C31.5968 20.4064 31.6616 20.4712 31.7437 20.5016L32.7396 20.8701C33.0008 20.9667 33.0008 21.3361 32.7396 21.4328L31.7437 21.8013C31.6616 21.8317 31.5968 21.8964 31.5664 21.9785L31.1979 22.9744C31.1013 23.2356 30.7319 23.2356 30.6352 22.9744L30.2667 21.9785C30.2363 21.8964 30.1716 21.8317 30.0895 21.8013L29.0936 21.4328C28.8324 21.3361 28.8324 20.9667 29.0936 20.8701L30.0895 20.5016C30.1716 20.4712 30.2363 20.4064 30.2667 20.3243L30.6352 19.3284Z" fill="white"/>
<path d="M28.2141 24.2615C28.3316 23.9442 28.7805 23.9442 28.8979 24.2615L29.5534 26.0328C29.7503 26.565 30.1699 26.9846 30.7021 27.1815L32.4733 27.8369C32.7907 27.9544 32.7907 28.4033 32.4733 28.5207L30.7021 29.1762C30.1699 29.3731 29.7503 29.7927 29.5534 30.3249L28.8979 32.0961C28.7805 32.4135 28.3316 32.4135 28.2141 32.0961L27.5587 30.3249C27.3618 29.7927 26.9422 29.3731 26.41 29.1762L24.6388 28.5207C24.3214 28.4033 24.3214 27.9544 24.6388 27.8369L26.41 27.1815C26.9422 26.9846 27.3618 26.565 27.5587 26.0328L28.2141 24.2615Z" fill="white"/>
</g>
<defs>
<filter id="filter0_dii_2212_1535" x="0" y="0" width="50" height="50" filterUnits="userSpaceOnUse" color-interpolation-filters="sRGB">
<feFlood flood-opacity="0" result="BackgroundImageFix"/>
<feColorMatrix in="SourceAlpha" type="matrix" values="0 0 0 0 0 0 0 0 0 0 0 0 0 0 0 0 0 0 127 0" result="hardAlpha"/>
<feOffset dy="1"/>
<feGaussianBlur stdDeviation="1"/>
<feColorMatrix type="matrix" values="0 0 0 0 0.0392157 0 0 0 0 0.0496732 0 0 0 0 0.0705882 0 0 0 0.05 0"/>
<feBlend mode="normal" in2="BackgroundImageFix" result="effect1_dropShadow_2212_1535"/>
<feBlend mode="normal" in="SourceGraphic" in2="effect1_dropShadow_2212_1535" result="shape"/>
<feColorMatrix in="SourceAlpha" type="matrix" values="0 0 0 0 0 0 0 0 0 0 0 0 0 0 0 0 0 0 127 0" result="hardAlpha"/>
<feOffset dy="-2"/>
<feComposite in2="hardAlpha" operator="arithmetic" k2="-1" k3="1"/>
<feColorMatrix type="matrix" values="0 0 0 0 0.0392157 0 0 0 0 0.0496732 0 0 0 0 0.0705882 0 0 0 0.05 0"/>
<feBlend mode="normal" in2="shape" result="effect2_innerShadow_2212_1535"/>
<feColorMatrix in="SourceAlpha" type="matrix" values="0 0 0 0 0 0 0 0 0 0 0 0 0 0 0 0 0 0 127 0" result="hardAlpha"/>
<feMorphology radius="1" operator="erode" in="SourceAlpha" result="effect3_innerShadow_2212_1535"/>
<feOffset/>
<feComposite in2="hardAlpha" operator="arithmetic" k2="-1" k3="1"/>
<feColorMatrix type="matrix" values="0 0 0 0 0.0392157 0 0 0 0 0.0496732 0 0 0 0 0.0705882 0 0 0 0.18 0"/>
<feBlend mode="normal" in2="effect2_innerShadow_2212_1535" result="effect3_innerShadow_2212_1535"/>
</filter>
</defs>
</svg>
