<svg xmlns="http://www.w3.org/2000/svg" width="58" height="58" viewBox="0 0 58 58" fill="none">
  <path d="M27.6431 55.2862C42.9098 55.2862 55.2862 42.9098 55.2862 27.6431C55.2862 12.3762 42.9098 0 27.6431 0C12.3762 0 0 12.3762 0 27.6431C0 31.7393 0.618553 35.3551 1.99244 38.6272C3.64223 42.5563 8.67031 42.9181 11.9655 40.2158L20.9297 32.8653L22.9043 35.0577L16.1732 42.8968C13.2865 46.2589 13.6788 51.5203 17.7447 53.2821C20.7271 54.5747 23.9823 55.2862 27.6431 55.2862Z" fill="#005AE0"/>
  <path fill-rule="evenodd" clip-rule="evenodd" d="M26.7454 37.4216C25.4719 38.2096 24.1094 38.9738 22.6523 39.7073L19.1888 36.2439L43.7477 11.6851C44.0236 15.904 42.0008 24.5549 33.445 32.3889C34.0758 38.077 29.6476 41.6675 27.0412 42.8457L26.7454 37.4216ZM18.0107 28.6868C17.2228 29.9603 16.4586 31.323 15.7248 32.7802L19.1888 36.2439L43.7477 11.6851C39.5289 11.4091 30.8775 13.4316 23.0434 21.9872C17.3554 21.3564 13.7648 25.7847 12.5865 28.391L18.0107 28.6868Z" fill="#F1F5F9"/>
  <path d="M32.5794 25.6681C34.2152 25.6681 35.5412 24.3421 35.5412 22.7064C35.5412 21.0707 34.2152 19.7446 32.5794 19.7446C30.9437 19.7446 29.6177 21.0707 29.6177 22.7064C29.6177 24.3421 30.9437 25.6681 32.5794 25.6681Z" fill="#005AE0"/>
</svg>
