<svg width="50" height="50" viewBox="0 0 50 50" fill="none" xmlns="http://www.w3.org/2000/svg">
<g filter="url(#filter0_dii_2240_3738)">
<rect x="2" y="1" width="45.9993" height="46" rx="5" fill="white"/>
<rect x="2.5" y="1.5" width="44.9993" height="45" rx="4.5" stroke="#E6EEFC"/>
<path d="M36.3107 14.1474C35.9619 14.4961 35.6131 14.8449 35.2644 15.1929C34.3509 16.1064 33.4358 17.02 32.5231 17.935C32.3101 18.148 32.0581 18.274 31.7558 18.2702C31.35 18.265 31.0388 18.0782 30.8505 17.7205C30.6585 17.356 30.6923 16.9929 30.9225 16.6517C30.9653 16.5887 31.0185 16.5309 31.0725 16.4769C32.3333 15.2154 33.5948 13.9539 34.8556 12.6923C32.2201 10.3928 28.773 9 25.0004 9C16.7157 9 10 15.7157 10 24.0004C10 27.773 11.3935 31.2201 13.6923 33.8564C14.9524 32.5963 16.2124 31.3363 17.4717 30.0755C17.6794 29.867 17.9224 29.7298 18.2187 29.7283C18.6177 29.726 18.9305 29.897 19.1367 30.2443C19.226 30.3943 19.2717 30.5593 19.271 30.65C19.2762 31.0513 19.1487 31.3093 18.9282 31.5291C17.8069 32.6488 16.6864 33.7694 15.5659 34.8899C15.4256 35.0302 15.2861 35.1697 15.1459 35.3099C17.7814 37.608 21.2278 39 24.9989 39C33.2836 39 39.9993 32.2843 39.9993 23.9996C39.9993 20.2278 38.6072 16.7822 36.3092 14.1466L36.3107 14.1474ZM17.0622 28.3085C16.6864 28.6835 16.4262 29.126 16.3242 29.6495C16.3054 29.744 16.2927 29.8378 16.2837 29.9308L14.4881 31.7263C14.4086 31.5006 14.3449 31.2673 14.2999 31.0251C14.0996 29.9518 14.2609 28.9287 14.7746 27.9635C14.9734 27.59 15.2194 27.2502 15.5186 26.9502C16.0857 26.3824 16.6519 25.8147 17.2197 25.2477C17.3434 26.0277 17.5812 26.7694 17.9157 27.4557C17.6307 27.74 17.3464 28.0242 17.0622 28.3085ZM27.9194 14.5494C28.554 13.9179 29.3152 13.5129 30.1883 13.3246C31.0478 13.1394 31.896 13.1911 32.7218 13.4926L30.9308 15.2837C30.669 15.3084 30.4095 15.3722 30.153 15.4802C29.8365 15.6137 29.5627 15.8087 29.3205 16.0502C29.0317 16.3382 28.7437 16.6269 28.455 16.9149C27.7694 16.5804 27.0277 16.3427 26.2484 16.2189C26.8049 15.6617 27.3607 15.1044 27.9187 14.5486L27.9194 14.5494ZM22.007 33.5219C21.3448 34.1654 20.5423 34.5561 19.6302 34.7129C18.8247 34.8516 18.038 34.7834 17.2759 34.5096L19.07 32.7156C19.1082 32.7118 19.1465 32.7111 19.1847 32.7058C19.6535 32.6436 20.0705 32.4583 20.441 32.1673C20.5295 32.0976 20.612 32.0203 20.6915 31.9408C20.9765 31.6558 21.2615 31.3708 21.5465 31.0851C22.2343 31.4203 22.9776 31.6588 23.7591 31.7818C23.1786 32.3653 22.5973 32.9481 22.007 33.5219ZM31.6658 25.2552C31.641 25.3932 31.6118 25.5319 31.578 25.6699C31.5443 25.8079 31.5068 25.9444 31.4663 26.0787C31.4333 26.1874 31.3665 26.2759 31.2818 26.3404C31.197 26.3809 31.1018 26.4019 31.0035 26.3974L30.1178 26.3569C29.9452 26.3494 29.7832 26.4184 29.6632 26.5354C29.6032 26.5842 29.5507 26.6442 29.5102 26.7139C29.4247 26.8617 29.331 27.0035 29.2327 27.1407C29.1307 27.2735 29.0242 27.4017 28.9102 27.524C28.857 27.581 28.8157 27.647 28.7865 27.7167C28.7062 27.8667 28.686 28.0445 28.7445 28.2087L29.0415 29.0443C29.0752 29.1388 29.082 29.2378 29.067 29.3323C29.0295 29.4298 28.965 29.5175 28.8727 29.5798C28.6387 29.738 28.3942 29.882 28.1422 30.011C27.9209 30.1243 27.6532 30.068 27.4867 29.8873L26.8927 29.2438C26.7397 29.078 26.5019 29.0203 26.2807 29.0765C25.9311 29.165 25.5696 29.2198 25.2029 29.237C24.9749 29.2475 24.7641 29.3728 24.6659 29.5753L24.2856 30.3628C24.1791 30.584 23.9391 30.716 23.6938 30.6718C23.5558 30.647 23.4171 30.6178 23.2791 30.584C23.1411 30.5503 23.0046 30.5128 22.8703 30.4723C22.8253 30.4588 22.7848 30.4378 22.7466 30.4138C22.6483 30.3058 22.5943 30.1573 22.6011 30.0028L22.6416 29.117C22.6521 28.889 22.5276 28.6782 22.3348 28.5612C22.0243 28.373 21.7363 28.154 21.4745 27.9102C21.3688 27.812 21.236 27.752 21.0988 27.7415C20.9825 27.71 20.858 27.7107 20.741 27.752L19.9055 28.049C19.841 28.0722 19.7735 28.082 19.7075 28.082C19.5935 28.049 19.4907 27.9785 19.4195 27.8727C19.2612 27.6387 19.1172 27.3942 18.9882 27.1422C18.875 26.9209 18.9312 26.6532 19.112 26.4867L19.7555 25.8927C19.9212 25.7397 19.979 25.5019 19.9227 25.2807C19.8342 24.9312 19.7795 24.5696 19.7622 24.2029C19.7517 23.9749 19.6265 23.7641 19.424 23.6659L18.6365 23.2856C18.4152 23.1791 18.2832 22.9391 18.3275 22.6938C18.3522 22.5558 18.3815 22.4171 18.4152 22.2791C18.449 22.1411 18.4865 22.0046 18.527 21.8703C18.548 21.8013 18.584 21.7406 18.6282 21.6881C18.722 21.6326 18.8322 21.6033 18.9477 21.6086L19.8335 21.6491C20.0413 21.6588 20.2348 21.5553 20.3555 21.3911C20.405 21.3468 20.4485 21.2951 20.483 21.2351C20.5625 21.0971 20.651 20.9658 20.7418 20.8375C20.837 20.7153 20.9353 20.5953 21.041 20.482C21.0868 20.4325 21.1235 20.377 21.1513 20.3178C21.275 20.1535 21.3185 19.9375 21.248 19.7403L20.951 18.9047C20.912 18.7952 20.9083 18.6797 20.9345 18.5732C20.9713 18.517 21.0185 18.4667 21.0778 18.4262C21.3118 18.268 21.5563 18.124 21.8083 17.995C22.0296 17.8817 22.2973 17.938 22.4638 18.1187L23.0578 18.7622C23.2108 18.928 23.4486 18.9858 23.6698 18.9295C24.0194 18.841 24.3809 18.7862 24.7476 18.769C24.9756 18.7585 25.1864 18.6332 25.2846 18.4307L25.6649 17.6432C25.7714 17.422 26.0114 17.29 26.2567 17.3342C26.3947 17.359 26.5334 17.3882 26.6714 17.422C26.8094 17.4557 26.9459 17.4932 27.0802 17.5337C27.2039 17.572 27.3022 17.6515 27.3674 17.7535C27.3854 17.815 27.3944 17.8802 27.3914 17.9462L27.3509 18.832C27.3449 18.9557 27.3802 19.0735 27.4432 19.1755C27.4934 19.3045 27.5894 19.4163 27.7154 19.489C28.0312 19.672 28.323 19.885 28.5885 20.1228C28.7565 20.2735 28.995 20.3305 29.2095 20.254L30.045 19.957C30.1928 19.9045 30.3518 19.9143 30.4845 19.978C30.5175 20.0065 30.5475 20.0388 30.573 20.0763C30.7313 20.3103 30.8753 20.5548 31.0043 20.8068C31.1175 21.0281 31.0613 21.2958 30.8805 21.4623L30.237 22.0563C30.0713 22.2093 30.0135 22.4471 30.0698 22.6683C30.1583 23.0179 30.213 23.3794 30.2303 23.7461C30.2408 23.9741 30.366 24.1849 30.5685 24.2831L31.356 24.6634C31.5773 24.7699 31.7093 25.0099 31.665 25.2552H31.6658ZM35.7466 18.4015C35.6379 19.2753 35.3094 20.0568 34.7574 20.7423C34.6576 20.866 34.5511 20.9845 34.4394 21.0971C33.8873 21.6506 33.3353 22.2048 32.7818 22.7568C32.6588 21.9761 32.4211 21.2328 32.0858 20.5465C32.3768 20.2563 32.6678 19.9653 32.9588 19.6743C33.3286 19.3038 33.5783 18.8635 33.6773 18.3482C33.6953 18.2537 33.7081 18.1607 33.7171 18.0677L35.5096 16.2752C35.7609 16.9577 35.8374 17.6695 35.7466 18.4007V18.4015Z" fill="#005AE0"/>
<path d="M27.7117 21.3425C27.4739 21.3425 27.2684 21.4273 27.1012 21.5953L24.1108 24.5856L22.9138 23.3893C22.7473 23.2363 22.5493 23.1591 22.3258 23.1591C22.1023 23.1591 21.8983 23.2423 21.7153 23.4118C21.5368 23.5896 21.4468 23.7951 21.4468 24.0224C21.4468 24.2496 21.5413 24.4529 21.7213 24.6081L23.5161 26.4179C23.6841 26.5859 23.8843 26.6707 24.1116 26.6707C24.3388 26.6707 24.5391 26.5859 24.7079 26.4172L28.3162 22.7773C28.488 22.6198 28.5757 22.4143 28.5682 22.1833C28.5615 21.9591 28.4737 21.7611 28.3147 21.6021C28.1587 21.4318 27.9509 21.3418 27.7124 21.3418L27.7117 21.3425Z" fill="#005AE0"/>
</g>
<defs>
<filter id="filter0_dii_2240_3738" x="0" y="0" width="49.999" height="50" filterUnits="userSpaceOnUse" color-interpolation-filters="sRGB">
<feFlood flood-opacity="0" result="BackgroundImageFix"/>
<feColorMatrix in="SourceAlpha" type="matrix" values="0 0 0 0 0 0 0 0 0 0 0 0 0 0 0 0 0 0 127 0" result="hardAlpha"/>
<feOffset dy="1"/>
<feGaussianBlur stdDeviation="1"/>
<feColorMatrix type="matrix" values="0 0 0 0 0.0392157 0 0 0 0 0.0496732 0 0 0 0 0.0705882 0 0 0 0.05 0"/>
<feBlend mode="normal" in2="BackgroundImageFix" result="effect1_dropShadow_2240_3738"/>
<feBlend mode="normal" in="SourceGraphic" in2="effect1_dropShadow_2240_3738" result="shape"/>
<feColorMatrix in="SourceAlpha" type="matrix" values="0 0 0 0 0 0 0 0 0 0 0 0 0 0 0 0 0 0 127 0" result="hardAlpha"/>
<feOffset dy="-2"/>
<feComposite in2="hardAlpha" operator="arithmetic" k2="-1" k3="1"/>
<feColorMatrix type="matrix" values="0 0 0 0 0.0392157 0 0 0 0 0.0496732 0 0 0 0 0.0705882 0 0 0 0.05 0"/>
<feBlend mode="normal" in2="shape" result="effect2_innerShadow_2240_3738"/>
<feColorMatrix in="SourceAlpha" type="matrix" values="0 0 0 0 0 0 0 0 0 0 0 0 0 0 0 0 0 0 127 0" result="hardAlpha"/>
<feMorphology radius="1" operator="erode" in="SourceAlpha" result="effect3_innerShadow_2240_3738"/>
<feOffset/>
<feComposite in2="hardAlpha" operator="arithmetic" k2="-1" k3="1"/>
<feColorMatrix type="matrix" values="0 0 0 0 0.0392157 0 0 0 0 0.0496732 0 0 0 0 0.0705882 0 0 0 0.18 0"/>
<feBlend mode="normal" in2="effect2_innerShadow_2240_3738" result="effect3_innerShadow_2240_3738"/>
</filter>
</defs>
</svg>
