<svg width="37" height="54" viewBox="0 0 37 54" fill="none" xmlns="http://www.w3.org/2000/svg">
<path fill-rule="evenodd" clip-rule="evenodd" d="M23.0078 8.57411C24.149 7.80775 25.6057 7.7254 26.7715 7.85859L26.9581 7.87992L26.9534 8.06869C26.9154 9.59424 26.6488 10.967 25.8088 11.9515C24.9617 12.9442 23.5711 13.4985 21.3895 13.4778L21.196 13.476L21.1866 13.2816C21.0657 10.7989 21.8497 9.35176 23.0078 8.57411ZM21.5888 13.0656C23.5863 13.0515 24.7821 12.5212 25.4972 11.6829C26.2107 10.8469 26.4825 9.66423 26.5372 8.24925C25.4527 8.15157 24.2028 8.26771 23.2358 8.91711C22.2571 9.57431 21.5223 10.8098 21.5888 13.0656Z" fill="white"/>
<path d="M21.5888 13.0656C23.5863 13.0515 24.7821 12.5212 25.4972 11.6829C26.2107 10.8469 26.4825 9.66423 26.5372 8.24925C25.4527 8.15157 24.2028 8.26771 23.2358 8.91711C22.2571 9.57431 21.5223 10.8098 21.5888 13.0656Z" fill="white"/>
<path d="M18.3198 16.7971C8.17188 16.8995 -0.00067145 25.1982 4.13764e-08 35.3995C0.000839405 45.6727 8.28587 54 18.5056 54C18.7323 53.999 18.9587 53.9939 19.1852 53.9846V47.4486C18.9456 47.4635 18.7057 47.4711 18.4658 47.4712C11.8877 47.4712 6.5551 42.1107 6.5551 35.4982C6.55459 32.3225 7.80927 29.2766 10.043 27.0309C12.2767 24.7851 15.3066 23.5234 18.4658 23.5234C18.7057 23.5242 18.9456 23.5323 19.1852 23.5479V16.8097C18.9587 16.801 18.7323 16.7965 18.5056 16.7959C18.4437 16.7959 18.3817 16.7971 18.3198 16.7971ZM20.8817 16.9516V23.7757C22.995 24.2149 24.9498 25.2232 26.5373 26.6925L31.8436 22.507C28.925 19.4553 25.058 17.4957 20.8817 16.9516ZM32.9652 23.7909L27.7044 27.9403C29.1815 29.7648 30.091 31.9864 30.3197 34.3273L36.981 34.3391C36.7623 30.4896 35.3589 26.8036 32.9652 23.7909ZM30.3652 36.0328C30.2612 38.3672 29.4803 40.62 28.1182 42.5135L32.8571 47.1398C35.4044 43.9943 36.8593 40.0979 37 36.0443L30.3652 36.0328ZM27.0268 43.8222C25.3644 45.5497 23.2232 46.7343 20.8817 47.2218V53.8454C25.0006 53.309 28.8202 51.3953 31.7259 48.4122L27.0268 43.8222Z" fill="white"/>
<path fill-rule="evenodd" clip-rule="evenodd" d="M7.96026 0L8.07425 0.0116219C14.1828 0.63375 17.0193 2.87505 18.312 5.50738C19.4312 7.7863 19.3805 10.341 19.3414 12.3105C19.3357 12.6022 19.3301 12.8811 19.3286 13.1443L19.3271 13.4106L19.1344 13.228C18.6311 12.7514 18.0833 12.1415 17.4758 11.465C17.1557 11.1085 16.8191 10.7336 16.4634 10.3498C15.5211 9.33296 14.4381 8.2451 13.1579 7.24672C14.2978 9.49409 16.1701 11.5705 17.9144 13.5051C17.9865 13.5849 18.0583 13.6645 18.1298 13.7439L18.2964 13.9288L18.0484 13.9374C16.2152 14.0011 13.421 13.1091 11.22 10.9213C9.01383 8.7284 7.40762 5.23799 7.94817 0.114654L7.96026 0ZM8.16557 0.254003C7.66783 5.24847 9.24499 8.63235 11.382 10.7566C13.4398 12.802 16.0203 13.6836 17.7867 13.7084C17.7694 13.6891 17.7519 13.6698 17.7345 13.6504C15.8862 11.6009 13.8642 9.35856 12.7394 6.91118L12.9125 6.76941C14.3779 7.85696 15.5931 9.07083 16.6321 10.1919C16.9914 10.5798 17.3287 10.9553 17.6476 11.3104C17.6505 11.3136 17.6534 11.3168 17.6563 11.32L17.6571 11.3209C18.1827 11.9063 18.6582 12.4359 19.1008 12.8737C19.1031 12.7033 19.1064 12.5278 19.1098 12.3479C19.1101 12.3318 19.1104 12.3157 19.1107 12.2995C19.1491 10.3262 19.1975 7.83384 18.1053 5.60993C16.8664 3.08717 14.143 0.886997 8.16557 0.254003Z" fill="white"/>
<path d="M8.16557 0.254003C7.66783 5.24847 9.24499 8.63235 11.382 10.7566C13.4398 12.802 16.0203 13.6836 17.7867 13.7084L17.7345 13.6504C15.8862 11.6009 13.8642 9.35856 12.7394 6.91118L12.9125 6.76941C14.3779 7.85696 15.5931 9.07083 16.6321 10.1919C16.9914 10.5798 17.3287 10.9553 17.6476 11.3104L17.6563 11.32L17.6571 11.3209C18.1827 11.9063 18.6582 12.4359 19.1008 12.8737C19.1031 12.7033 19.1064 12.5278 19.1098 12.3479L19.1107 12.2995C19.1491 10.3262 19.1975 7.83384 18.1053 5.60993C16.8664 3.08717 14.143 0.886997 8.16557 0.254003Z" fill="white"/>
</svg>
