<svg width="20" height="20" viewBox="0 0 20 20" fill="none" xmlns="http://www.w3.org/2000/svg">
<g clip-path="url(#clip0_2212_601)">
<path d="M17.54 3.4315C17.3075 3.664 17.075 3.8965 16.8425 4.1285C16.2335 4.7375 15.6235 5.3465 15.015 5.9565C14.873 6.0985 14.705 6.1825 14.5035 6.18C14.233 6.1765 14.0255 6.052 13.9 5.8135C13.772 5.5705 13.7945 5.3285 13.948 5.101C13.9765 5.059 14.012 5.0205 14.048 4.9845C14.8885 4.1435 15.7295 3.3025 16.57 2.4615C14.813 0.9285 12.515 0 10 0C4.477 0 0 4.477 0 10C0 12.515 0.929 14.813 2.4615 16.5705C3.3015 15.7305 4.1415 14.8905 4.981 14.05C5.1195 13.911 5.2815 13.8195 5.479 13.8185C5.745 13.817 5.9535 13.931 6.091 14.1625C6.1505 14.2625 6.181 14.3725 6.1805 14.433C6.184 14.7005 6.099 14.8725 5.952 15.019C5.2045 15.7655 4.4575 16.5125 3.7105 17.2595C3.617 17.353 3.524 17.446 3.4305 17.5395C5.1875 19.0715 7.485 19.9995 9.999 19.9995C15.522 19.9995 19.999 15.5225 19.999 9.9995C19.999 7.485 19.071 5.188 17.539 3.431L17.54 3.4315ZM4.708 12.872C4.4575 13.122 4.284 13.417 4.216 13.766C4.2035 13.829 4.195 13.8915 4.189 13.9535L2.992 15.1505C2.939 15 2.8965 14.8445 2.8665 14.683C2.733 13.9675 2.8405 13.2855 3.183 12.642C3.3155 12.393 3.4795 12.1665 3.679 11.9665C4.057 11.588 4.4345 11.2095 4.813 10.8315C4.8955 11.3515 5.054 11.846 5.277 12.3035C5.087 12.493 4.8975 12.6825 4.708 12.872ZM11.946 3.6995C12.369 3.2785 12.8765 3.0085 13.4585 2.883C14.0315 2.7595 14.597 2.794 15.1475 2.995L13.9535 4.189C13.779 4.2055 13.606 4.248 13.435 4.32C13.224 4.409 13.0415 4.539 12.88 4.7C12.6875 4.892 12.4955 5.0845 12.303 5.2765C11.846 5.0535 11.3515 4.895 10.832 4.8125C11.203 4.441 11.5735 4.0695 11.9455 3.699L11.946 3.6995ZM8.0045 16.3475C7.563 16.7765 7.028 17.037 6.42 17.1415C5.883 17.234 5.3585 17.1885 4.8505 17.006L6.0465 15.81C6.072 15.8075 6.0975 15.807 6.123 15.8035C6.4355 15.762 6.7135 15.6385 6.9605 15.4445C7.0195 15.398 7.0745 15.3465 7.1275 15.2935C7.3175 15.1035 7.5075 14.9135 7.6975 14.723C8.156 14.9465 8.6515 15.1055 9.1725 15.1875C8.7855 15.5765 8.398 15.965 8.0045 16.3475ZM14.4435 10.8365C14.427 10.9285 14.4075 11.021 14.385 11.113C14.3625 11.205 14.3375 11.296 14.3105 11.3855C14.2885 11.458 14.244 11.517 14.1875 11.56C14.131 11.587 14.0675 11.601 14.002 11.598L13.4115 11.571C13.2965 11.566 13.1885 11.612 13.1085 11.69C13.0685 11.7225 13.0335 11.7625 13.0065 11.809C12.9495 11.9075 12.887 12.002 12.8215 12.0935C12.7535 12.182 12.6825 12.2675 12.6065 12.349C12.571 12.387 12.5435 12.431 12.524 12.4775C12.4705 12.5775 12.457 12.696 12.496 12.8055L12.694 13.3625C12.7165 13.4255 12.721 13.4915 12.711 13.5545C12.686 13.6195 12.643 13.678 12.5815 13.7195C12.4255 13.825 12.2625 13.921 12.0945 14.007C11.947 14.0825 11.7685 14.045 11.6575 13.9245L11.2615 13.4955C11.1595 13.385 11.001 13.3465 10.8535 13.384C10.6205 13.443 10.3795 13.4795 10.135 13.491C9.983 13.498 9.8425 13.5815 9.777 13.7165L9.5235 14.2415C9.4525 14.389 9.2925 14.477 9.129 14.4475C9.037 14.431 8.9445 14.4115 8.8525 14.389C8.7605 14.3665 8.6695 14.3415 8.58 14.3145C8.55 14.3055 8.523 14.2915 8.4975 14.2755C8.432 14.2035 8.396 14.1045 8.4005 14.0015L8.4275 13.411C8.4345 13.259 8.3515 13.1185 8.223 13.0405C8.016 12.915 7.824 12.769 7.6495 12.6065C7.579 12.541 7.4905 12.501 7.399 12.494C7.3215 12.473 7.2385 12.4735 7.1605 12.501L6.6035 12.699C6.5605 12.7145 6.5155 12.721 6.4715 12.721C6.3955 12.699 6.327 12.652 6.2795 12.5815C6.174 12.4255 6.078 12.2625 5.992 12.0945C5.9165 11.947 5.954 11.7685 6.0745 11.6575L6.5035 11.2615C6.614 11.1595 6.6525 11.001 6.615 10.8535C6.556 10.6205 6.5195 10.3795 6.508 10.135C6.501 9.983 6.4175 9.8425 6.2825 9.777L5.7575 9.5235C5.61 9.4525 5.522 9.2925 5.5515 9.129C5.568 9.037 5.5875 8.9445 5.61 8.8525C5.6325 8.7605 5.6575 8.6695 5.6845 8.58C5.6985 8.534 5.7225 8.4935 5.752 8.4585C5.8145 8.4215 5.888 8.402 5.965 8.4055L6.5555 8.4325C6.694 8.439 6.823 8.37 6.9035 8.2605C6.9365 8.231 6.9655 8.1965 6.9885 8.1565C7.0415 8.0645 7.1005 7.977 7.161 7.8915C7.2245 7.81 7.29 7.73 7.3605 7.6545C7.391 7.6215 7.4155 7.5845 7.434 7.545C7.5165 7.4355 7.5455 7.2915 7.4985 7.16L7.3005 6.603C7.2745 6.53 7.272 6.453 7.2895 6.382C7.314 6.3445 7.3455 6.311 7.385 6.284C7.541 6.1785 7.704 6.0825 7.872 5.9965C8.0195 5.921 8.198 5.9585 8.309 6.079L8.705 6.508C8.807 6.6185 8.9655 6.657 9.113 6.6195C9.346 6.5605 9.587 6.524 9.8315 6.5125C9.9835 6.5055 10.124 6.422 10.1895 6.287L10.443 5.762C10.514 5.6145 10.674 5.5265 10.8375 5.556C10.9295 5.5725 11.022 5.592 11.114 5.6145C11.206 5.637 11.297 5.662 11.3865 5.689C11.469 5.7145 11.5345 5.7675 11.578 5.8355C11.59 5.8765 11.596 5.92 11.594 5.964L11.567 6.5545C11.563 6.637 11.5865 6.7155 11.6285 6.7835C11.662 6.8695 11.726 6.944 11.81 6.9925C12.0205 7.1145 12.215 7.2565 12.392 7.415C12.504 7.5155 12.663 7.5535 12.806 7.5025L13.363 7.3045C13.4615 7.2695 13.5675 7.276 13.656 7.3185C13.678 7.3375 13.698 7.359 13.715 7.384C13.8205 7.54 13.9165 7.703 14.0025 7.871C14.078 8.0185 14.0405 8.197 13.92 8.308L13.491 8.704C13.3805 8.806 13.342 8.9645 13.3795 9.112C13.4385 9.345 13.475 9.586 13.4865 9.8305C13.4935 9.9825 13.577 10.123 13.712 10.1885L14.237 10.442C14.3845 10.513 14.4725 10.673 14.443 10.8365H14.4435ZM17.164 6.2675C17.0915 6.85 16.8725 7.371 16.5045 7.828C16.438 7.9105 16.367 7.9895 16.2925 8.0645C15.9245 8.4335 15.5565 8.803 15.1875 9.171C15.1055 8.6505 14.947 8.155 14.7235 7.6975C14.9175 7.504 15.1115 7.31 15.3055 7.116C15.552 6.869 15.7185 6.5755 15.7845 6.232C15.7965 6.169 15.805 6.107 15.811 6.045L17.006 4.85C17.1735 5.305 17.2245 5.7795 17.164 6.267V6.2675Z" fill="#005AE0"/>
<path d="M11.8076 8.22841C11.6491 8.22841 11.5121 8.28491 11.4006 8.39691L9.4071 10.3904L8.6091 9.59291C8.4981 9.49091 8.3661 9.4394 8.2171 9.4394C8.0681 9.4394 7.9321 9.49491 7.8101 9.60791C7.6911 9.72641 7.6311 9.86341 7.6311 10.0149C7.6311 10.1664 7.6941 10.3019 7.8141 10.4054L9.0106 11.6119C9.1226 11.7239 9.2561 11.7804 9.4076 11.7804C9.5591 11.7804 9.6926 11.7239 9.8051 11.6114L12.2106 9.18491C12.3251 9.07991 12.3836 8.94291 12.3786 8.78891C12.3741 8.63941 12.3156 8.50741 12.2096 8.40141C12.1056 8.28791 11.9671 8.22791 11.8081 8.22791L11.8076 8.22841Z" fill="#005AE0"/>
</g>
<defs>
<clipPath id="clip0_2212_601">
<rect width="20" height="20" fill="white"/>
</clipPath>
</defs>
</svg>
