<svg width="20" height="20" viewBox="0 0 20 20" fill="none" xmlns="http://www.w3.org/2000/svg">
<path d="M1.94434 11.8154V9.99994H8.2985V11.8154H1.94434ZM1.94434 8.18447V6.36899H11.9295V8.18447H1.94434ZM1.94434 4.55351V2.73804H11.9295V4.55351H1.94434Z" fill="#005AE0"/>
<path d="M15.6352 5.32822C15.7319 5.06704 16.1013 5.06704 16.1979 5.32822L16.5664 6.3241C16.5968 6.40621 16.6616 6.47096 16.7437 6.50134L17.7396 6.86985C18.0008 6.9665 18.0008 7.33591 17.7396 7.43256L16.7437 7.80107C16.6616 7.83145 16.5968 7.8962 16.5664 7.97831L16.1979 8.97419C16.1013 9.23537 15.7319 9.23537 15.6352 8.97419L15.2667 7.97831C15.2363 7.8962 15.1716 7.83145 15.0895 7.80107L14.0936 7.43256C13.8324 7.33591 13.8324 6.9665 14.0936 6.86985L15.0895 6.50134C15.1716 6.47096 15.2363 6.40621 15.2667 6.3241L15.6352 5.32822Z" fill="#005AE0"/>
<path d="M13.2142 10.2614C13.3317 9.94399 13.7806 9.94399 13.898 10.2614L14.5534 12.0326C14.7504 12.5648 15.17 12.9844 15.7022 13.1814L17.4734 13.8368C17.7908 13.9542 17.7908 14.4031 17.4734 14.5206L15.7022 15.176C15.17 15.3729 14.7504 15.7925 14.5534 16.3247L13.898 18.096C13.7806 18.4134 13.3317 18.4134 13.2142 18.096L12.5588 16.3247C12.3619 15.7925 11.9423 15.3729 11.4101 15.176L9.63882 14.5206C9.32143 14.4031 9.32143 13.9542 9.63882 13.8368L11.4101 13.1814C11.9423 12.9844 12.3619 12.5648 12.5588 12.0326L13.2142 10.2614Z" fill="#005AE0"/>
</svg>
